<?xml version="1.0" encoding="iso-8859-1"?>
<!-- Generator: Adobe Illustrator 19.0.0, SVG Export Plug-In . SVG Version: 6.00 Build 0)  -->
<svg version="1.1" id="Layer_1" xmlns="http://www.w3.org/2000/svg" xmlns:xlink="http://www.w3.org/1999/xlink" x="0px" y="0px"
	 viewBox="0 0 512 512" style="enable-background:new 0 0 512 512;" xml:space="preserve">
<polygon style="fill:#763F31;" points="292.834,512 350.684,127.808 452.222,150.662 372.651,512 "/>
<polygon style="fill:#9E5439;" points="350.573,150.662 292.944,0 372.76,0 451.994,150.662 "/>
<polygon style="fill:#DD955F;" points="139.455,512 59.778,150.662 139.345,0 292.944,0 372.51,150.662 292.834,512 "/>
<path style="fill:#763F31;" d="M260.551,146.421h-35.565V96.482c0-4.789-3.882-8.671-8.671-8.671s-8.671,3.882-8.671,8.671v49.938
	h-35.564c-4.789,0-8.671,3.882-8.671,8.671c0,4.789,3.882,8.671,8.671,8.671h35.564v123.028c0,4.789,3.882,8.671,8.671,8.671
	s8.671-3.882,8.671-8.671V163.763h35.565c4.789,0,8.671-3.882,8.671-8.671C269.222,150.304,265.34,146.421,260.551,146.421z"/>
<g>
</g>
<g>
</g>
<g>
</g>
<g>
</g>
<g>
</g>
<g>
</g>
<g>
</g>
<g>
</g>
<g>
</g>
<g>
</g>
<g>
</g>
<g>
</g>
<g>
</g>
<g>
</g>
<g>
</g>
</svg>
