<svg width="34" height="34" viewBox="0 0 34 34" fill="none" xmlns="http://www.w3.org/2000/svg">
<rect width="34" height="34" rx="4" fill="#A72828"/>
<path d="M23.2816 10H9.7177C8.76885 10 8 10.7909 8 11.7668V21.3424C8 22.3183 8.76885 23.1092 9.7177 23.1092H23.2816C24.2304 23.1092 25 22.3183 25 21.3423V11.7668C25 10.7909 24.2304 10 23.2816 10ZM17.3377 16.2435C16.861 16.6888 16.1386 16.6888 15.665 16.2464L10.4767 11.4566H22.5229L17.3377 16.2435ZM9.41668 12.4356L12.9052 15.6561L9.41668 20.4385V12.4356ZM13.9634 16.6331L14.7154 17.3273C15.7262 18.2716 17.2734 18.2716 18.2873 17.3245L19.0362 16.633L22.6977 21.6526H10.3019L13.9634 16.6331ZM20.0944 15.6561L23.5833 12.4352V20.4391L20.0944 15.6561Z" fill="white"/>
</svg>
