<svg width="34" height="34" viewBox="0 0 34 34" fill="none" xmlns="http://www.w3.org/2000/svg">
<rect width="34" height="34" rx="4" fill="#A72828"/>
<path d="M23.4442 11.9382C23.4442 12.701 22.8258 13.3194 22.063 13.3194C21.3001 13.3194 20.6817 12.701 20.6817 11.9382C20.6817 11.1753 21.3001 10.5569 22.063 10.5569C22.8258 10.5569 23.4442 11.1753 23.4442 11.9382Z" fill="#F8F8F8"/>
<path fill-rule="evenodd" clip-rule="evenodd" d="M16.9984 21.6069C19.5412 21.6069 21.6025 19.5456 21.6025 17.0028C21.6025 14.46 19.5412 12.3986 16.9984 12.3986C14.4556 12.3986 12.3942 14.46 12.3942 17.0028C12.3942 19.5456 14.4556 21.6069 16.9984 21.6069ZM16.9984 19.7653C18.5241 19.7653 19.7609 18.5285 19.7609 17.0028C19.7609 15.4771 18.5241 14.2403 16.9984 14.2403C15.4727 14.2403 14.2359 15.4771 14.2359 17.0028C14.2359 18.5285 15.4727 19.7653 16.9984 19.7653Z" fill="#F8F8F8"/>
<path fill-rule="evenodd" clip-rule="evenodd" d="M7.79004 16.6344C7.79004 13.5401 7.79004 11.993 8.39223 10.8111C8.92193 9.77154 9.76715 8.92632 10.8067 8.39662C11.9886 7.79443 13.5357 7.79443 16.63 7.79443H17.3667C20.461 7.79443 22.0081 7.79443 23.19 8.39662C24.2296 8.92632 25.0748 9.77154 25.6045 10.8111C26.2067 11.993 26.2067 13.5401 26.2067 16.6344V17.3711C26.2067 20.4654 26.2067 22.0125 25.6045 23.1944C25.0748 24.234 24.2296 25.0792 23.19 25.6089C22.0081 26.2111 20.461 26.2111 17.3667 26.2111H16.63C13.5357 26.2111 11.9886 26.2111 10.8067 25.6089C9.76715 25.0792 8.92193 24.234 8.39223 23.1944C7.79004 22.0125 7.79004 20.4654 7.79004 17.3711V16.6344ZM16.63 9.6361H17.3667C18.9442 9.6361 20.0166 9.63753 20.8455 9.70526C21.653 9.77123 22.0659 9.8908 22.3539 10.0376C23.047 10.3907 23.6104 10.9542 23.9636 11.6472C24.1103 11.9353 24.2299 12.3482 24.2959 13.1556C24.3636 13.9845 24.365 15.0569 24.365 16.6344V17.3711C24.365 18.9486 24.3636 20.021 24.2959 20.8499C24.2299 21.6574 24.1103 22.0703 23.9636 22.3583C23.6104 23.0514 23.047 23.6148 22.3539 23.968C22.0659 24.1147 21.653 24.2343 20.8455 24.3003C20.0166 24.368 18.9442 24.3694 17.3667 24.3694H16.63C15.0525 24.3694 13.9801 24.368 13.1512 24.3003C12.3438 24.2343 11.9309 24.1147 11.6428 23.968C10.9498 23.6148 10.3863 23.0514 10.0332 22.3583C9.8864 22.0703 9.76683 21.6574 9.70086 20.8499C9.63314 20.021 9.63171 18.9486 9.63171 17.3711V16.6344C9.63171 15.0569 9.63314 13.9845 9.70086 13.1556C9.76683 12.3482 9.8864 11.9353 10.0332 11.6472C10.3863 10.9542 10.9498 10.3907 11.6428 10.0376C11.9309 9.8908 12.3438 9.77123 13.1512 9.70526C13.9801 9.63753 15.0525 9.6361 16.63 9.6361Z" fill="#F8F8F8"/>
</svg>
