<svg width="34" height="34" viewBox="0 0 34 34" fill="none" xmlns="http://www.w3.org/2000/svg">
<rect width="34" height="34" rx="4" fill="#A72828"/>
<path d="M26 16.7684C26 21.6108 22.044 25.5363 17.1629 25.5363C15.6139 25.5363 14.1589 25.1401 12.8922 24.4463L8 26L9.59474 21.2944C8.79062 19.9738 8.32752 18.4231 8.32752 16.7679C8.32811 11.9255 12.283 8 17.1641 8C22.0445 8.00117 26 11.9261 26 16.7684ZM17.1623 9.39812C13.066 9.39812 9.73385 12.705 9.73385 16.7702C9.73385 18.3831 10.2598 19.8763 11.149 21.0913L10.2216 23.8283L13.0754 22.9214C14.2493 23.6915 15.6538 24.14 17.1623 24.14C21.2586 24.14 24.5919 20.8337 24.5919 16.7684C24.5931 12.705 21.2592 9.39812 17.1623 9.39812ZM21.6255 18.7881C21.5703 18.6995 21.4259 18.6455 21.2099 18.5375C20.9945 18.4295 19.928 17.9101 19.7302 17.8396C19.5306 17.7674 19.3862 17.731 19.2419 17.9465C19.0992 18.1619 18.6837 18.6455 18.5563 18.7899C18.4301 18.9337 18.3039 18.9519 18.0873 18.8457C17.8707 18.7365 17.1723 18.5111 16.3447 17.7792C15.7008 17.2087 15.2659 16.5061 15.1402 16.2907C15.0129 16.0758 15.1273 15.9596 15.2347 15.8528C15.3316 15.756 15.4513 15.6016 15.5599 15.4754C15.6685 15.3504 15.7043 15.2617 15.7765 15.1179C15.8475 14.9741 15.8117 14.8491 15.7583 14.7405C15.7043 14.6325 15.2717 13.576 15.0904 13.1458C14.9102 12.7161 14.73 12.7872 14.6032 12.7872C14.477 12.7872 14.3326 12.7696 14.1882 12.7696C14.0438 12.7696 13.809 12.8218 13.6112 13.0372C13.4134 13.2526 12.8535 13.7721 12.8535 14.8298C12.8535 15.8886 13.6289 16.9093 13.7374 17.0525C13.8466 17.1952 15.2365 19.4367 17.4382 20.2972C19.641 21.1571 19.641 20.8701 20.0378 20.8337C20.4357 20.7973 21.3197 20.3142 21.4993 19.813C21.68 19.3094 21.68 18.8779 21.6255 18.7881Z" fill="white"/>
</svg>
